# xmcd
#
# Track frame offsets: 
#        150
#        17279
#        42031
#        65454
#        83160
#        98151
#        120991
#        146260
#        162085
#        176706
#        201920
#        218992
#        244303
#        258567
#        283671
#        296979
#
# Disc length: 4147 seconds
#
# Revision: 0
# Processed by: cddbd v1.5.2PL0 Copyright (c) Steve Scherf et al.
# Submitted via: ExactAudioCopyFreeDBPlugin 1.0
#
DISCID=e6103110
DTITLE=群星 - 试机35号
DYEAR=2016
DGENRE=Acid
TTITLE0=音效测试+斯特劳斯圆舞曲
TTITLE1=弦乐五重奏之夜莺小夜曲
TTITLE2=世界著名圆舞曲之蓝色多瑙河
TTITLE3=动态人声之24HOUTS
TTITLE4=小提琴协奏曲之卡冂幻想曲
TTITLE5=中国著名交响乐之春节序曲
TTITLE6=皇家芭蕾舞之天鹅湖选曲
TTITLE7=中国鼓乐之鼓动心弦
TTITLE8=世界著名弦乐五重奏四季之春天
TTITLE9=世界著名管弦乐万宝路之选曲
TTITLE10=中国著名交响乐之英雄美人
TTITLE11=动态人声之狼选曲
TTITLE12=斯特劳斯圆舞曲之红衫仔选曲
TTITLE13=新世纪音乐之一意孤行
TTITLE14=世界著名弦乐五重奏之华雨兹选曲
TTITLE15=维也纳新年音乐会之结尾曲
EXTD=
EXTT0=
EXTT1=
EXTT2=
EXTT3=
EXTT4=
EXTT5=
EXTT6=
EXTT7=
EXTT8=
EXTT9=
EXTT10=
EXTT11=
EXTT12=
EXTT13=
EXTT14=
EXTT15=
PLAYORDER=
